<?xml version="1.0" encoding="UTF-8" standalone="no"?>
<!DOCTYPE svg PUBLIC "-//W3C//DTD SVG 1.1//EN"
 "http://www.w3.org/Graphics/SVG/1.1/DTD/svg11.dtd">
<!-- Generated by graphviz version 2.40.1 (20161225.0304)
 -->
<!-- Title: dependencies Pages: 1 -->
<svg width="655pt" height="284pt"
 viewBox="0.00 0.00 655.00 284.00" xmlns="http://www.w3.org/2000/svg" xmlns:xlink="http://www.w3.org/1999/xlink">
<g id="graph0" class="graph" transform="scale(1 1) rotate(0) translate(4 280)">
<title>dependencies</title>
<polygon fill="#ffffff" stroke="transparent" points="-4,4 -4,-280 651,-280 651,4 -4,4"/>
<text text-anchor="start" x="302.5091" y="-42.4" font-family="sans-serif" font-weight="bold" font-size="14.00" fill="#000000">Legend</text>
<polygon fill="#ffffb3" stroke="transparent" points="89.5,-10 89.5,-30 109.5,-30 109.5,-10 89.5,-10"/>
<text text-anchor="start" x="113.129" y="-15.4" font-family="sans-serif" font-size="14.00" fill="#000000"> &#160;Declarations</text>
<polygon fill="#8dd3c7" stroke="transparent" points="202.5,-10 202.5,-30 222.5,-30 222.5,-10 202.5,-10"/>
<text text-anchor="start" x="226.2251" y="-15.4" font-family="sans-serif" font-size="14.00" fill="#000000"> &#160;Module</text>
<polygon fill="#80b1d3" stroke="transparent" points="288.5,-10 288.5,-30 308.5,-30 308.5,-10 288.5,-10"/>
<text text-anchor="start" x="312.2812" y="-15.4" font-family="sans-serif" font-size="14.00" fill="#000000"> &#160;Bootstrap</text>
<polygon fill="#fdb462" stroke="transparent" points="385.5,-10 385.5,-30 405.5,-30 405.5,-10 385.5,-10"/>
<text text-anchor="start" x="409.1732" y="-15.4" font-family="sans-serif" font-size="14.00" fill="#000000"> &#160;Providers</text>
<polygon fill="#fb8072" stroke="transparent" points="481.5,-10 481.5,-30 501.5,-30 501.5,-10 481.5,-10"/>
<text text-anchor="start" x="505.2258" y="-15.4" font-family="sans-serif" font-size="14.00" fill="#000000"> &#160;Exports</text>
<g id="clust1" class="cluster">
<title>cluster_AppModule</title>
<polygon fill="none" stroke="#000000" stroke-dasharray="1,5" points="8,-70 8,-268 639,-268 639,-70 8,-70"/>
</g>
<g id="clust2" class="cluster">
<title>cluster_AppModule_declarations</title>
<polygon fill="none" stroke="#000000" points="168,-78 168,-130 631,-130 631,-78 168,-78"/>
</g>
<g id="clust6" class="cluster">
<title>cluster_AppModule_imports</title>
<polygon fill="none" stroke="#000000" points="16,-78 16,-130 160,-130 160,-78 16,-78"/>
</g>
<g id="clust8" class="cluster">
<title>cluster_AppModule_bootstrap</title>
<polygon fill="none" stroke="#000000" points="251,-208 251,-260 417,-260 417,-208 251,-208"/>
</g>
<!-- AppComponent -->
<g id="node1" class="node">
<title>AppComponent</title>
<polygon fill="#ffffb3" stroke="#000000" points="622.9399,-122 517.0601,-122 517.0601,-86 622.9399,-86 622.9399,-122"/>
<text text-anchor="middle" x="570" y="-99.8" font-family="Times,serif" font-size="14.00" fill="#000000">AppComponent</text>
</g>
<!-- AppModule -->
<g id="node4" class="node">
<title>AppModule</title>
<polygon fill="#8dd3c7" stroke="#000000" points="375.6571,-187 372.6571,-191 351.6571,-191 348.6571,-187 292.3429,-187 292.3429,-151 375.6571,-151 375.6571,-187"/>
<text text-anchor="middle" x="334" y="-164.8" font-family="Times,serif" font-size="14.00" fill="#000000">AppModule</text>
</g>
<!-- AppComponent&#45;&gt;AppModule -->
<g id="edge1" class="edge">
<title>AppComponent&#45;&gt;AppModule</title>
<path fill="none" stroke="#000000" d="M570,-122.1061C570,-141.3391 570,-169 570,-169 570,-169 385.9201,-169 385.9201,-169"/>
<polygon fill="#000000" stroke="#000000" points="385.9202,-165.5001 375.9201,-169 385.9201,-172.5001 385.9202,-165.5001"/>
</g>
<!-- ProductDetailComponent -->
<g id="node2" class="node">
<title>ProductDetailComponent</title>
<polygon fill="#ffffb3" stroke="#000000" points="499.5884,-122 340.4116,-122 340.4116,-86 499.5884,-86 499.5884,-122"/>
<text text-anchor="middle" x="420" y="-99.8" font-family="Times,serif" font-size="14.00" fill="#000000">ProductDetailComponent</text>
</g>
<!-- ProductDetailComponent&#45;&gt;AppModule -->
<g id="edge2" class="edge">
<title>ProductDetailComponent&#45;&gt;AppModule</title>
<path fill="none" stroke="#000000" d="M358.142,-122.1061C358.142,-122.1061 358.142,-140.991 358.142,-140.991"/>
<polygon fill="#000000" stroke="#000000" points="354.6421,-140.9909 358.142,-150.991 361.6421,-140.991 354.6421,-140.9909"/>
</g>
<!-- ProductListComponent -->
<g id="node3" class="node">
<title>ProductListComponent</title>
<polygon fill="#ffffb3" stroke="#000000" points="322.1596,-122 175.8404,-122 175.8404,-86 322.1596,-86 322.1596,-122"/>
<text text-anchor="middle" x="249" y="-99.8" font-family="Times,serif" font-size="14.00" fill="#000000">ProductListComponent</text>
</g>
<!-- ProductListComponent&#45;&gt;AppModule -->
<g id="edge3" class="edge">
<title>ProductListComponent&#45;&gt;AppModule</title>
<path fill="none" stroke="#000000" d="M307.2507,-122.1061C307.2507,-122.1061 307.2507,-140.991 307.2507,-140.991"/>
<polygon fill="#000000" stroke="#000000" points="303.7508,-140.9909 307.2507,-150.991 310.7508,-140.991 303.7508,-140.9909"/>
</g>
<!-- ProductListComponent  -->
<g id="node6" class="node">
<title>ProductListComponent </title>
<polygon fill="#80b1d3" stroke="#000000" points="409.1593,-252 258.8407,-252 258.8407,-216 409.1593,-216 409.1593,-252"/>
<text text-anchor="middle" x="334" y="-229.8" font-family="Times,serif" font-size="14.00" fill="#000000">ProductListComponent </text>
</g>
<!-- AppModule&#45;&gt;ProductListComponent  -->
<g id="edge5" class="edge">
<title>AppModule&#45;&gt;ProductListComponent </title>
<path fill="none" stroke="#000000" stroke-dasharray="1,5" d="M334,-187.1061C334,-187.1061 334,-205.991 334,-205.991"/>
<polygon fill="#000000" stroke="#000000" points="330.5001,-205.9909 334,-215.991 337.5001,-205.991 330.5001,-205.9909"/>
</g>
<!-- AppRoutingModule -->
<g id="node5" class="node">
<title>AppRoutingModule</title>
<polygon fill="#8dd3c7" stroke="#000000" points="152.2744,-122 149.2744,-126 128.2744,-126 125.2744,-122 23.7256,-122 23.7256,-86 152.2744,-86 152.2744,-122"/>
<text text-anchor="middle" x="88" y="-99.8" font-family="Times,serif" font-size="14.00" fill="#000000">AppRoutingModule</text>
</g>
<!-- AppRoutingModule&#45;&gt;AppModule -->
<g id="edge4" class="edge">
<title>AppRoutingModule&#45;&gt;AppModule</title>
<path fill="none" stroke="#000000" d="M88,-122.1061C88,-141.3391 88,-169 88,-169 88,-169 282.2695,-169 282.2695,-169"/>
<polygon fill="#000000" stroke="#000000" points="282.2695,-172.5001 292.2695,-169 282.2694,-165.5001 282.2695,-172.5001"/>
</g>
</g>
</svg>
